<mxfile host="65bd71144e">
    <diagram id="HxWeZkBMZzglkSYcSrte" name="Page-1">
        <mxGraphModel dx="3058" dy="2053" grid="1" gridSize="10" guides="1" tooltips="1" connect="1" arrows="1" fold="1" page="1" pageScale="1" pageWidth="850" pageHeight="1100" background="none" math="0" shadow="0">
            <root>
                <mxCell id="0"/>
                <mxCell id="1" parent="0"/>
                <mxCell id="10" value="C++ programs and libraries" style="group;labelPosition=center;verticalLabelPosition=bottom;align=center;verticalAlign=top;fontSize=16;fontColor=#99CCFF;fontFamily=Open Sans;fontSource=https%3A%2F%2Ffonts.googleapis.com%2Fcss%3Ffamily%3DOpen%2BSans;" vertex="1" connectable="0" parent="1">
                    <mxGeometry x="-290" y="560" width="240" height="130" as="geometry"/>
                </mxCell>
                <mxCell id="11" value="" style="rounded=1;whiteSpace=wrap;html=1;fillColor=#647687;strokeColor=#314354;fontFamily=Open Sans;fontSource=https%3A%2F%2Ffonts.googleapis.com%2Fcss%3Ffamily%3DOpen%2BSans;fontColor=#ffffff;" vertex="1" parent="10">
                    <mxGeometry width="240" height="130" as="geometry"/>
                </mxCell>
                <mxCell id="2osQ3PGrTZjhwpNe1hat-15" value="Docker images" style="group;fontSize=16;labelPosition=center;verticalLabelPosition=bottom;align=center;verticalAlign=top;fontColor=#99FF99;fontFamily=Open Sans;fontSource=https%3A%2F%2Ffonts.googleapis.com%2Fcss%3Ffamily%3DOpen%2BSans;" parent="1" vertex="1" connectable="0">
                    <mxGeometry x="890" y="-260" width="230" height="310" as="geometry"/>
                </mxCell>
                <mxCell id="2osQ3PGrTZjhwpNe1hat-14" value="" style="rounded=1;whiteSpace=wrap;html=1;fillColor=#6d8764;strokeColor=#3A5431;fontFamily=Open Sans;fontSource=https%3A%2F%2Ffonts.googleapis.com%2Fcss%3Ffamily%3DOpen%2BSans;fontColor=#ffffff;" parent="2osQ3PGrTZjhwpNe1hat-15" vertex="1">
                    <mxGeometry width="230" height="310" as="geometry"/>
                </mxCell>
                <mxCell id="2osQ3PGrTZjhwpNe1hat-12" value="img_dev-webserver" style="rounded=1;whiteSpace=wrap;html=1;fontFamily=Open Sans;fontSource=https%3A%2F%2Ffonts.googleapis.com%2Fcss%3Ffamily%3DOpen%2BSans;" parent="2osQ3PGrTZjhwpNe1hat-15" vertex="1">
                    <mxGeometry x="55" y="130" width="120" height="60" as="geometry"/>
                </mxCell>
                <mxCell id="2osQ3PGrTZjhwpNe1hat-51" style="edgeStyle=orthogonalEdgeStyle;rounded=1;jumpStyle=arc;orthogonalLoop=1;jettySize=auto;html=1;exitX=0.5;exitY=1;exitDx=0;exitDy=0;entryX=0.5;entryY=0;entryDx=0;entryDy=0;fontSize=16;fontColor=#006600;strokeWidth=2;fontFamily=Open Sans;fontSource=https%3A%2F%2Ffonts.googleapis.com%2Fcss%3Ffamily%3DOpen%2BSans;" parent="2osQ3PGrTZjhwpNe1hat-15" source="2osQ3PGrTZjhwpNe1hat-13" target="2osQ3PGrTZjhwpNe1hat-12" edge="1">
                    <mxGeometry relative="1" as="geometry"/>
                </mxCell>
                <mxCell id="2osQ3PGrTZjhwpNe1hat-13" value="img_webserver" style="rounded=1;whiteSpace=wrap;html=1;fontFamily=Open Sans;fontSource=https%3A%2F%2Ffonts.googleapis.com%2Fcss%3Ffamily%3DOpen%2BSans;" parent="2osQ3PGrTZjhwpNe1hat-15" vertex="1">
                    <mxGeometry x="55" y="40" width="120" height="60" as="geometry"/>
                </mxCell>
                <mxCell id="2osQ3PGrTZjhwpNe1hat-64" value="srv_infrastructure" style="rounded=1;whiteSpace=wrap;html=1;fontFamily=Open Sans;fontSource=https%3A%2F%2Ffonts.googleapis.com%2Fcss%3Ffamily%3DOpen%2BSans;" parent="2osQ3PGrTZjhwpNe1hat-15" vertex="1">
                    <mxGeometry x="55" y="220" width="120" height="60" as="geometry"/>
                </mxCell>
                <mxCell id="2osQ3PGrTZjhwpNe1hat-28" value="Websites" style="group;fontColor=#FF9999;fontSize=16;labelPosition=center;verticalLabelPosition=bottom;align=center;verticalAlign=top;fontFamily=Open Sans;fontSource=https%3A%2F%2Ffonts.googleapis.com%2Fcss%3Ffamily%3DOpen%2BSans;" parent="1" vertex="1" connectable="0">
                    <mxGeometry x="440" y="-220" width="190" height="200" as="geometry"/>
                </mxCell>
                <mxCell id="2osQ3PGrTZjhwpNe1hat-27" value="" style="rounded=1;whiteSpace=wrap;html=1;fillColor=#a20025;strokeColor=#6F0000;fontFamily=Open Sans;fontSource=https%3A%2F%2Ffonts.googleapis.com%2Fcss%3Ffamily%3DOpen%2BSans;fontColor=#ffffff;" parent="2osQ3PGrTZjhwpNe1hat-28" vertex="1">
                    <mxGeometry width="190" height="200" as="geometry"/>
                </mxCell>
                <mxCell id="2osQ3PGrTZjhwpNe1hat-11" value="eons.llc" style="rounded=1;whiteSpace=wrap;html=1;fontFamily=Open Sans;fontSource=https%3A%2F%2Ffonts.googleapis.com%2Fcss%3Ffamily%3DOpen%2BSans;" parent="2osQ3PGrTZjhwpNe1hat-28" vertex="1">
                    <mxGeometry x="35" y="110" width="120" height="60" as="geometry"/>
                </mxCell>
                <mxCell id="2osQ3PGrTZjhwpNe1hat-26" value="infrastructure.tech" style="rounded=1;whiteSpace=wrap;html=1;fontFamily=Open Sans;fontSource=https%3A%2F%2Ffonts.googleapis.com%2Fcss%3Ffamily%3DOpen%2BSans;" parent="2osQ3PGrTZjhwpNe1hat-28" vertex="1">
                    <mxGeometry x="35" y="30" width="120" height="60" as="geometry"/>
                </mxCell>
                <mxCell id="2osQ3PGrTZjhwpNe1hat-74" value="&lt;font&gt;Uses&lt;/font&gt;" style="endArrow=classic;html=1;rounded=1;fontSize=16;fontColor=#FF67E2;strokeColor=#FF67E2;strokeWidth=3;jumpStyle=arc;labelPosition=center;verticalLabelPosition=bottom;align=center;verticalAlign=top;labelBackgroundColor=none;fontFamily=Open Sans;fontSource=https%3A%2F%2Ffonts.googleapis.com%2Fcss%3Ffamily%3DOpen%2BSans;" parent="1" edge="1">
                    <mxGeometry width="50" height="50" relative="1" as="geometry">
                        <mxPoint x="-300" y="90" as="sourcePoint"/>
                        <mxPoint x="-220" y="90" as="targetPoint"/>
                    </mxGeometry>
                </mxCell>
                <mxCell id="2osQ3PGrTZjhwpNe1hat-76" value="Creates" style="endArrow=classic;html=1;rounded=1;fontSize=16;fontColor=#FFDE66;strokeColor=#FFDE66;strokeWidth=4;jumpStyle=arc;labelPosition=center;verticalLabelPosition=bottom;align=center;verticalAlign=top;labelBackgroundColor=none;fontFamily=Open Sans;fontSource=https%3A%2F%2Ffonts.googleapis.com%2Fcss%3Ffamily%3DOpen%2BSans;" parent="1" edge="1">
                    <mxGeometry width="50" height="50" relative="1" as="geometry">
                        <mxPoint x="-300" y="30" as="sourcePoint"/>
                        <mxPoint x="-220" y="30" as="targetPoint"/>
                    </mxGeometry>
                </mxCell>
                <mxCell id="2osQ3PGrTZjhwpNe1hat-77" value="&lt;font&gt;Secondary loop support&lt;/font&gt;" style="endArrow=classic;html=1;rounded=1;fontSize=16;fontColor=#CC0066;strokeColor=#CC0066;strokeWidth=2;jumpStyle=arc;labelPosition=center;verticalLabelPosition=bottom;align=center;verticalAlign=top;labelBackgroundColor=none;fontFamily=Open Sans;fontSource=https%3A%2F%2Ffonts.googleapis.com%2Fcss%3Ffamily%3DOpen%2BSans;" parent="1" edge="1">
                    <mxGeometry width="50" height="50" relative="1" as="geometry">
                        <mxPoint x="-300" y="150" as="sourcePoint"/>
                        <mxPoint x="-220" y="150" as="targetPoint"/>
                    </mxGeometry>
                </mxCell>
                <mxCell id="2osQ3PGrTZjhwpNe1hat-78" value="&lt;font&gt;Dependency&lt;/font&gt;" style="endArrow=classic;html=1;rounded=1;fontSize=16;fontColor=#FFFFFF;strokeColor=#FFFFFF;strokeWidth=2;jumpStyle=arc;labelPosition=center;verticalLabelPosition=bottom;align=center;verticalAlign=top;labelBackgroundColor=none;fontFamily=Open Sans;fontSource=https%3A%2F%2Ffonts.googleapis.com%2Fcss%3Ffamily%3DOpen%2BSans;" parent="1" edge="1">
                    <mxGeometry width="50" height="50" relative="1" as="geometry">
                        <mxPoint x="-300" y="207" as="sourcePoint"/>
                        <mxPoint x="-220" y="207" as="targetPoint"/>
                    </mxGeometry>
                </mxCell>
                <mxCell id="2osQ3PGrTZjhwpNe1hat-22" value="Python programs and libraries" style="rounded=1;whiteSpace=wrap;html=1;fillColor=#76608a;strokeColor=#432D57;fontFamily=Open Sans;fontSource=https%3A%2F%2Ffonts.googleapis.com%2Fcss%3Ffamily%3DOpen%2BSans;fontColor=#B997D9;verticalAlign=top;labelPosition=center;verticalLabelPosition=bottom;align=center;fontSize=16;" parent="1" vertex="1">
                    <mxGeometry x="-50" y="310" width="520" height="460" as="geometry"/>
                </mxCell>
                <mxCell id="7" style="edgeStyle=none;html=1;strokeWidth=2;" edge="1" parent="1" source="2osQ3PGrTZjhwpNe1hat-1" target="6">
                    <mxGeometry relative="1" as="geometry"/>
                </mxCell>
                <mxCell id="17" style="edgeStyle=none;html=1;strokeWidth=4;fontSize=16;fontColor=#FFDE66;labelBackgroundColor=none;fontFamily=Open Sans;verticalAlign=top;strokeColor=#FFDE66;fontSource=https%3A%2F%2Ffonts.googleapis.com%2Fcss%3Ffamily%3DOpen%2BSans;" edge="1" parent="1" source="2osQ3PGrTZjhwpNe1hat-1" target="2osQ3PGrTZjhwpNe1hat-9">
                    <mxGeometry relative="1" as="geometry"/>
                </mxCell>
                <mxCell id="2osQ3PGrTZjhwpNe1hat-1" value="EBBS" style="rounded=1;whiteSpace=wrap;html=1;fontFamily=Open Sans;fontSource=https%3A%2F%2Ffonts.googleapis.com%2Fcss%3Ffamily%3DOpen%2BSans;" parent="1" vertex="1">
                    <mxGeometry x="210" y="520" width="120" height="60" as="geometry"/>
                </mxCell>
                <mxCell id="2osQ3PGrTZjhwpNe1hat-30" style="edgeStyle=orthogonalEdgeStyle;rounded=1;orthogonalLoop=1;jettySize=auto;html=1;exitX=1;exitY=0.5;exitDx=0;exitDy=0;entryX=0.5;entryY=1;entryDx=0;entryDy=0;strokeWidth=2;fontFamily=Open Sans;fontSource=https%3A%2F%2Ffonts.googleapis.com%2Fcss%3Ffamily%3DOpen%2BSans;" parent="1" source="2osQ3PGrTZjhwpNe1hat-2" target="2osQ3PGrTZjhwpNe1hat-1" edge="1">
                    <mxGeometry relative="1" as="geometry"/>
                </mxCell>
                <mxCell id="2osQ3PGrTZjhwpNe1hat-2" value="eons" style="rounded=1;whiteSpace=wrap;html=1;fontFamily=Open Sans;fontSource=https%3A%2F%2Ffonts.googleapis.com%2Fcss%3Ffamily%3DOpen%2BSans;" parent="1" vertex="1">
                    <mxGeometry x="50" y="595" width="120" height="60" as="geometry"/>
                </mxCell>
                <mxCell id="2osQ3PGrTZjhwpNe1hat-8" value="ESAM" style="rounded=1;whiteSpace=wrap;html=1;fontFamily=Open Sans;fontSource=https%3A%2F%2Ffonts.googleapis.com%2Fcss%3Ffamily%3DOpen%2BSans;" parent="1" vertex="1">
                    <mxGeometry x="210" y="670" width="120" height="60" as="geometry"/>
                </mxCell>
                <mxCell id="2osQ3PGrTZjhwpNe1hat-31" style="edgeStyle=orthogonalEdgeStyle;rounded=1;orthogonalLoop=1;jettySize=auto;html=1;exitX=1;exitY=0.5;exitDx=0;exitDy=0;entryX=0.5;entryY=0;entryDx=0;entryDy=0;strokeWidth=2;fontFamily=Open Sans;fontSource=https%3A%2F%2Ffonts.googleapis.com%2Fcss%3Ffamily%3DOpen%2BSans;" parent="1" source="2osQ3PGrTZjhwpNe1hat-2" target="2osQ3PGrTZjhwpNe1hat-8" edge="1">
                    <mxGeometry relative="1" as="geometry"/>
                </mxCell>
                <mxCell id="2osQ3PGrTZjhwpNe1hat-34" value="EOT" style="rounded=1;whiteSpace=wrap;html=1;fontFamily=Open Sans;fontSource=https%3A%2F%2Ffonts.googleapis.com%2Fcss%3Ffamily%3DOpen%2BSans;" parent="1" vertex="1">
                    <mxGeometry x="320" y="595" width="120" height="60" as="geometry"/>
                </mxCell>
                <mxCell id="2osQ3PGrTZjhwpNe1hat-35" style="edgeStyle=orthogonalEdgeStyle;rounded=1;orthogonalLoop=1;jettySize=auto;html=1;exitX=1;exitY=0.5;exitDx=0;exitDy=0;entryX=0;entryY=0.5;entryDx=0;entryDy=0;strokeWidth=2;fontFamily=Open Sans;fontSource=https%3A%2F%2Ffonts.googleapis.com%2Fcss%3Ffamily%3DOpen%2BSans;" parent="1" source="2osQ3PGrTZjhwpNe1hat-2" target="2osQ3PGrTZjhwpNe1hat-34" edge="1">
                    <mxGeometry relative="1" as="geometry"/>
                </mxCell>
                <mxCell id="4" style="edgeStyle=none;html=1;strokeWidth=2;" edge="1" parent="1" source="2" target="3">
                    <mxGeometry relative="1" as="geometry"/>
                </mxCell>
                <mxCell id="2" value="Biology" style="rounded=1;whiteSpace=wrap;html=1;fontFamily=Open Sans;fontSource=https%3A%2F%2Ffonts.googleapis.com%2Fcss%3Ffamily%3DOpen%2BSans;" vertex="1" parent="1">
                    <mxGeometry x="-270" y="595" width="120" height="60" as="geometry"/>
                </mxCell>
                <mxCell id="5" style="edgeStyle=none;html=1;strokeWidth=2;" edge="1" parent="1" source="3" target="2osQ3PGrTZjhwpNe1hat-2">
                    <mxGeometry relative="1" as="geometry"/>
                </mxCell>
                <mxCell id="3" value="Immortality" style="rounded=1;whiteSpace=wrap;html=1;fontFamily=Open Sans;fontSource=https%3A%2F%2Ffonts.googleapis.com%2Fcss%3Ffamily%3DOpen%2BSans;" vertex="1" parent="1">
                    <mxGeometry x="-110" y="595" width="120" height="60" as="geometry"/>
                </mxCell>
                <mxCell id="9" style="edgeStyle=none;html=1;strokeWidth=2;" edge="1" parent="1" source="6" target="8">
                    <mxGeometry relative="1" as="geometry"/>
                </mxCell>
                <mxCell id="6" value="EMI" style="rounded=1;whiteSpace=wrap;html=1;fontFamily=Open Sans;fontSource=https%3A%2F%2Ffonts.googleapis.com%2Fcss%3Ffamily%3DOpen%2BSans;" vertex="1" parent="1">
                    <mxGeometry x="210" y="420" width="120" height="60" as="geometry"/>
                </mxCell>
                <mxCell id="8" value="APIE" style="rounded=1;whiteSpace=wrap;html=1;fontFamily=Open Sans;fontSource=https%3A%2F%2Ffonts.googleapis.com%2Fcss%3Ffamily%3DOpen%2BSans;" vertex="1" parent="1">
                    <mxGeometry x="210" y="320" width="120" height="60" as="geometry"/>
                </mxCell>
                <mxCell id="14" value="" style="group" vertex="1" connectable="0" parent="1">
                    <mxGeometry x="1260" y="-220" width="220" height="230" as="geometry"/>
                </mxCell>
                <mxCell id="2osQ3PGrTZjhwpNe1hat-20" value="Wordpress plugins" style="rounded=1;whiteSpace=wrap;html=1;fillColor=#a0522d;strokeColor=#6D1F00;fontFamily=Open Sans;fontSource=https%3A%2F%2Ffonts.googleapis.com%2Fcss%3Ffamily%3DOpen%2BSans;fontColor=#F77F46;labelPosition=center;verticalLabelPosition=bottom;align=center;verticalAlign=top;fontSize=16;" parent="14" vertex="1">
                    <mxGeometry width="220" height="230" as="geometry"/>
                </mxCell>
                <mxCell id="2osQ3PGrTZjhwpNe1hat-17" value="infrastructure.tech" style="rounded=1;whiteSpace=wrap;html=1;fontFamily=Open Sans;fontSource=https%3A%2F%2Ffonts.googleapis.com%2Fcss%3Ffamily%3DOpen%2BSans;" parent="14" vertex="1">
                    <mxGeometry x="50" y="40" width="120" height="60" as="geometry"/>
                </mxCell>
                <mxCell id="2osQ3PGrTZjhwpNe1hat-18" value="security" style="rounded=1;whiteSpace=wrap;html=1;fontFamily=Open Sans;fontSource=https%3A%2F%2Ffonts.googleapis.com%2Fcss%3Ffamily%3DOpen%2BSans;" parent="14" vertex="1">
                    <mxGeometry x="50" y="140" width="120" height="60" as="geometry"/>
                </mxCell>
                <mxCell id="27" value="" style="group" vertex="1" connectable="0" parent="1">
                    <mxGeometry x="730" y="500" width="910" height="100" as="geometry"/>
                </mxCell>
                <mxCell id="2osQ3PGrTZjhwpNe1hat-9" value="Builders" style="rounded=1;whiteSpace=wrap;html=1;fillColor=#997700;strokeColor=#333300;fontFamily=Open Sans;fontSource=https%3A%2F%2Ffonts.googleapis.com%2Fcss%3Ffamily%3DOpen%2BSans;fontColor=#F7C000;rotation=0;labelPosition=center;verticalLabelPosition=bottom;align=center;verticalAlign=top;fontSize=16;" parent="27" vertex="1">
                    <mxGeometry width="910" height="100" as="geometry"/>
                </mxCell>
                <mxCell id="2osQ3PGrTZjhwpNe1hat-3" value="docker" style="rounded=1;whiteSpace=wrap;html=1;fontFamily=Open Sans;fontSource=https%3A%2F%2Ffonts.googleapis.com%2Fcss%3Ffamily%3DOpen%2BSans;" parent="27" vertex="1">
                    <mxGeometry x="20" y="20" width="120" height="60" as="geometry"/>
                </mxCell>
                <mxCell id="2osQ3PGrTZjhwpNe1hat-4" value="py" style="rounded=1;whiteSpace=wrap;html=1;fontFamily=Open Sans;fontSource=https%3A%2F%2Ffonts.googleapis.com%2Fcss%3Ffamily%3DOpen%2BSans;" parent="27" vertex="1">
                    <mxGeometry x="170" y="20" width="120" height="60" as="geometry"/>
                </mxCell>
                <mxCell id="2osQ3PGrTZjhwpNe1hat-5" value="cpp" style="rounded=1;whiteSpace=wrap;html=1;fontFamily=Open Sans;fontSource=https%3A%2F%2Ffonts.googleapis.com%2Fcss%3Ffamily%3DOpen%2BSans;" parent="27" vertex="1">
                    <mxGeometry x="320" y="20" width="120" height="60" as="geometry"/>
                </mxCell>
                <mxCell id="2osQ3PGrTZjhwpNe1hat-6" value="in_container" style="rounded=1;whiteSpace=wrap;html=1;fontFamily=Open Sans;fontSource=https%3A%2F%2Ffonts.googleapis.com%2Fcss%3Ffamily%3DOpen%2BSans;" parent="27" vertex="1">
                    <mxGeometry x="470" y="20" width="120" height="60" as="geometry"/>
                </mxCell>
                <mxCell id="2osQ3PGrTZjhwpNe1hat-7" value="wordpress_plugin" style="rounded=1;whiteSpace=wrap;html=1;fontFamily=Open Sans;fontSource=https%3A%2F%2Ffonts.googleapis.com%2Fcss%3Ffamily%3DOpen%2BSans;" parent="27" vertex="1">
                    <mxGeometry x="620" y="20" width="120" height="60" as="geometry"/>
                </mxCell>
                <mxCell id="2osQ3PGrTZjhwpNe1hat-79" value="publish" style="rounded=1;whiteSpace=wrap;html=1;fontFamily=Open Sans;fontSource=https%3A%2F%2Ffonts.googleapis.com%2Fcss%3Ffamily%3DOpen%2BSans;" parent="27" vertex="1">
                    <mxGeometry x="770" y="20" width="120" height="60" as="geometry"/>
                </mxCell>
                <mxCell id="28" value="" style="group" vertex="1" connectable="0" parent="1">
                    <mxGeometry x="580" y="340" width="620" height="100" as="geometry"/>
                </mxCell>
                <mxCell id="20" value="Merx" style="rounded=1;whiteSpace=wrap;html=1;fillColor=#009999;strokeColor=#003333;fontFamily=Open Sans;fontSource=https%3A%2F%2Ffonts.googleapis.com%2Fcss%3Ffamily%3DOpen%2BSans;fontColor=#00DBDB;rotation=0;labelPosition=center;verticalLabelPosition=bottom;align=center;verticalAlign=top;fontSize=16;" vertex="1" parent="28">
                    <mxGeometry width="620" height="100" as="geometry"/>
                </mxCell>
                <mxCell id="21" value="Install" style="rounded=1;whiteSpace=wrap;html=1;fontFamily=Open Sans;fontSource=https%3A%2F%2Ffonts.googleapis.com%2Fcss%3Ffamily%3DOpen%2BSans;" vertex="1" parent="28">
                    <mxGeometry x="20" y="20" width="120" height="60" as="geometry"/>
                </mxCell>
                <mxCell id="22" value="Remove" style="rounded=1;whiteSpace=wrap;html=1;fontFamily=Open Sans;fontSource=https%3A%2F%2Ffonts.googleapis.com%2Fcss%3Ffamily%3DOpen%2BSans;" vertex="1" parent="28">
                    <mxGeometry x="170" y="20" width="120" height="60" as="geometry"/>
                </mxCell>
                <mxCell id="23" value="Deploy" style="rounded=1;whiteSpace=wrap;html=1;fontFamily=Open Sans;fontSource=https%3A%2F%2Ffonts.googleapis.com%2Fcss%3Ffamily%3DOpen%2BSans;" vertex="1" parent="28">
                    <mxGeometry x="320" y="20" width="120" height="60" as="geometry"/>
                </mxCell>
                <mxCell id="24" value="Withdraw" style="rounded=1;whiteSpace=wrap;html=1;fontFamily=Open Sans;fontSource=https%3A%2F%2Ffonts.googleapis.com%2Fcss%3Ffamily%3DOpen%2BSans;" vertex="1" parent="28">
                    <mxGeometry x="470" y="20" width="120" height="60" as="geometry"/>
                </mxCell>
            </root>
        </mxGraphModel>
    </diagram>
</mxfile>